<svg width="207" height="205" viewBox="0 0 207 205" fill="none" xmlns="http://www.w3.org/2000/svg">
<path d="M150.311 182.692C134.821 182.692 119.321 182.762 103.831 182.632C100.471 182.602 98.6504 183.402 97.1204 186.842C92.2304 197.852 83.4404 203.982 71.3104 204.162C58.9204 204.352 49.9804 198.212 44.8404 187.102C43.2404 183.642 41.5004 182.502 37.8104 182.602C28.3204 182.862 18.8204 182.732 9.33035 182.662C3.04035 182.612 0.0803359 180.202 0.0703359 175.382C0.0603359 170.642 3.25035 168.022 9.29035 167.992C18.9504 167.942 28.6204 167.882 38.2804 168.032C41.4204 168.082 43.1904 167.442 44.6204 164.152C49.5104 152.862 58.5904 146.602 70.7704 146.582C83.1504 146.562 92.3704 152.772 97.2604 164.372C98.5804 167.502 100.381 168.032 103.331 168.022C133.651 167.942 163.971 167.972 194.291 167.982C195.961 167.982 197.631 167.902 199.281 168.052C203.631 168.462 206.471 171.522 206.241 175.622C206.001 179.952 203.561 182.442 199.271 182.592C193.281 182.802 187.281 182.672 181.281 182.682C170.971 182.692 160.641 182.692 150.311 182.692ZM71.0604 161.282C63.4004 161.202 57.1104 167.382 57.0204 175.102C56.9204 183.432 62.7204 189.472 70.8304 189.492C78.7604 189.512 84.8804 183.622 85.0104 175.852C85.1404 167.932 78.8604 161.362 71.0604 161.282Z" fill="#303030"/>
<path d="M19.8397 21.2019C24.9797 15.1119 28.4397 9.12192 33.5497 5.34192C47.9697 -5.33808 68.2997 0.691916 75.2197 17.2419C76.6497 20.6619 78.3897 21.5319 81.8297 21.5119C119.63 21.3219 157.42 21.2719 195.22 21.2019C196.88 21.2019 198.61 21.0119 200.2 21.3719C203.8 22.1919 206.13 24.4219 206.23 28.3019C206.34 32.3519 204.19 34.9319 200.31 35.8219C198.56 36.2219 196.67 36.0519 194.84 36.0619C157.21 36.1519 119.58 36.2819 81.9497 36.2119C78.2597 36.2019 76.5197 37.3219 74.9097 40.7119C69.8097 51.4519 60.8997 57.2019 49.0497 57.0619C37.1597 56.9319 28.4897 50.8219 23.6797 39.9919C22.2497 36.7819 20.6497 35.7719 17.3997 36.0019C14.0897 36.2419 10.7297 36.2019 7.41978 35.9619C2.72978 35.6219 -0.120228 32.4319 0.0997719 28.1719C0.299772 24.2019 3.25977 21.3919 7.75977 21.2419C12.4097 21.0819 17.0597 21.2019 19.8397 21.2019ZM49.3897 14.9619C41.5897 14.9819 35.9097 20.7019 35.9297 28.4919C35.9497 36.3219 41.6197 42.1519 49.2897 42.2119C56.8897 42.2719 63.0297 36.3419 63.1297 28.8419C63.2297 20.9419 57.2897 14.9419 49.3897 14.9619Z" fill="#303030"/>
<path d="M52.6896 107.632C38.0296 107.632 23.3796 107.612 8.71956 107.632C4.41956 107.642 1.14956 106.122 0.189564 101.612C-0.840436 96.7518 2.40958 93.0918 7.92958 93.0518C20.7496 92.9418 33.5796 93.0118 46.3996 93.0118C62.8896 93.0118 79.3796 92.9418 95.8696 93.0718C98.9296 93.0918 100.43 92.2918 101.75 89.2718C106.76 77.8418 115.73 71.4718 128.29 71.5218C140.83 71.5718 149.76 77.9318 154.75 89.4118C155.95 92.1718 157.33 93.1018 160.26 93.0718C172.58 92.9318 184.91 92.9818 197.23 93.0218C203.18 93.0418 206.13 95.3618 206.27 99.9618C206.41 104.762 203.24 107.582 197.3 107.612C184.98 107.682 172.65 107.702 160.33 107.592C157.48 107.562 156.03 108.362 154.76 111.172C149.76 122.272 141.12 128.862 128.76 129.012C116.23 129.152 107.23 122.802 101.99 111.562C100.54 108.452 98.9396 107.532 95.6696 107.572C81.3396 107.732 67.0196 107.642 52.6896 107.632ZM142.27 100.382C142.27 92.3218 136.15 86.2118 128.13 86.2518C120.43 86.2918 114.2 92.4618 114.16 100.082C114.13 108.012 120.41 114.292 128.33 114.222C136.14 114.162 142.27 108.072 142.27 100.382Z" fill="#303030"/>
</svg>
